<svg xmlns="http://www.w3.org/2000/svg" xmlns:xlink="http://www.w3.org/1999/xlink" viewBox="0 0 1125.5 1547.5"><defs><linearGradient id="a" x1="562.63" y1="228.31" x2="562.63" y2="-469.59" gradientTransform="translate(0.37 1296.04)" gradientUnits="userSpaceOnUse"><stop offset="0.13" stop-color="#fe055f"/><stop offset="0.29" stop-color="#d0044e"/><stop offset="0.66" stop-color="#5c0222"/><stop offset="0.95"/></linearGradient><linearGradient id="b" x1="-273.77" y1="806.36" x2="-273.77" y2="108.47" gradientTransform="translate(836.27 -55.52)" xlink:href="#a"/></defs><rect y="415" width="1125" height="746" fill="#fe055f"/><rect x="0.5" y="773.5" width="1125" height="774" transform="translate(1126 2321) rotate(180)" fill="url(#a)"/><rect width="1125" height="774" fill="url(#b)"/><rect y="587" width="1125" height="362" fill="#fff"/><rect x="594.5" y="699.5" width="510" height="150" rx="64.61" fill="#fff" stroke="#fe055f" stroke-miterlimit="10" stroke-width="19.04"/><path d="M645.89,773.33c0-12.18,7.77-20.26,19.94-20.26,11.87,0,19.54,7.65,19.54,20.15v3.28H659.8v.61c0,3.79,2.45,6.55,6.65,6.55,2.89,0,5.22-1.25,6-3.48h12.89c-1.33,8.18-8.33,13.4-19.23,13.4C653.56,793.58,645.89,786,645.89,773.33Zm26.49-4.61c-.08-3.37-2.74-5.73-6.24-5.73s-6.26,2.33-6.34,5.73Z" fill="#fe055f"/><path d="M691.09,753.58h14.12v39.28H691.09Zm.1-10.53a7,7,0,1,1,7,6.44A6.72,6.72,0,0,1,691.19,743.05Z" fill="#fe055f"/><path d="M726.48,792.86H712.36V753.58h13.4v7.47h.41c1.72-5,6.29-8,12.07-8,8.34,0,13.74,6.19,13.71,14.73v25.06H737.83V770.77c0-3.89-2.07-6.24-5.62-6.24s-5.7,2.35-5.73,6.24Z" fill="#fe055f"/><path d="M782.32,763.81h-6.75v16.42c0,1.64.82,2.46,2.66,2.46a14.85,14.85,0,0,0,2.76-.41l2,9.92a29.13,29.13,0,0,1-6.86,1.23c-9.74.53-14.83-3.63-14.73-11.87V763.81h-5V753.58h5v-9.41h14.12v9.41h6.75Z" fill="#fe055f"/><path d="M786.2,782c0-8.62,6.32-11.89,14.43-12.48,6.59-.48,9.1-1.2,9.1-3.48V766c0-2-1.74-3.17-4.19-3.17-2.69,0-4.48,1.15-4.81,3.58h-13c.48-7.16,6.26-13.3,18-13.3,11.23,0,18.11,5.63,18.11,12.89v26.9h-13.2v-5.52h-.31c-2.37,4.4-6.24,6.14-11.35,6.14C791.47,793.48,786.2,789.85,786.2,782ZM809.83,779v-3.27a25.82,25.82,0,0,1-5.62,1.43c-3.28.51-4.71,2.07-4.71,4.09,0,2.2,1.69,3.38,4.09,3.38C806.79,784.58,809.83,782.53,809.83,779Z" fill="#fe055f"/><path d="M856.06,753.58h14.12v39.28h-13.4V785.4h-.41c-1.71,5-6.22,8-12.07,8-8.26,0-13.68-6.14-13.71-14.73V753.58h14.12v22.1c0,3.89,2.07,6.24,5.62,6.24s5.76-2.35,5.73-6.24Z" fill="#fe055f"/><path d="M875.9,773.33c0-12.07,7.57-20.26,20.35-20.26,11.56,0,18.85,6.65,18.93,16.88h-13.1c-.38-4.12-2.5-6.34-5.62-6.34-3.71,0-6.14,3.17-6.14,9.61s2.43,9.62,6.14,9.62c3.09,0,5.32-2.23,5.62-6.34h13.1c-.15,10.41-7.29,17.08-18.93,17.08C883.47,793.58,875.9,785.4,875.9,773.33Z" fill="#fe055f"/><path d="M935.12,792.86H921V740.49h13.61v20.56h.4c1.77-5,6.07-8,11.87-8,8.31,0,13.73,6.14,13.71,14.73v25.06H946.47V770.77c0-3.89-2-6.24-5.62-6.24s-5.71,2.35-5.73,6.24Z" fill="#fe055f"/><path d="M966.1,773.33c0-12.18,7.78-20.26,19.95-20.26,11.87,0,19.54,7.65,19.54,20.15v3.28H980v.61c0,3.79,2.46,6.55,6.65,6.55,2.89,0,5.22-1.25,6-3.48h12.89c-1.33,8.18-8.34,13.4-19.23,13.4C973.77,793.58,966.1,786,966.1,773.33Zm26.5-4.61c-.08-3.37-2.74-5.73-6.24-5.73s-6.27,2.33-6.35,5.73Z" fill="#fe055f"/><path d="M1025.42,792.86h-14.11V753.58h13.4v7.47h.41c1.71-5,6.29-8,12.07-8,8.33,0,13.73,6.19,13.7,14.73v25.06h-14.11V770.77c0-3.89-2.07-6.24-5.63-6.24s-5.7,2.35-5.73,6.24Z" fill="#fe055f"/><path d="M31.56,782.36a5.29,5.29,0,0,1-4-1.42,5.13,5.13,0,0,1-1.32-3.63v-8.55H21.43v-3.94h3.09a2.35,2.35,0,0,0,1.6-.44,2.19,2.19,0,0,0,.48-1.63v-4.12h4.62v6.19h6.83v3.94H31.22v9.66h6.83v3.94Z" fill="#fe055f"/><path d="M42.61,757.2h5V768h.21a7.46,7.46,0,0,1,.74-1.4,5.3,5.3,0,0,1,1.08-1.14,4.74,4.74,0,0,1,1.46-.78,5.75,5.75,0,0,1,1.88-.29,6.06,6.06,0,0,1,2.32.43,4.66,4.66,0,0,1,1.8,1.27,6.09,6.09,0,0,1,1.17,2.08,8.62,8.62,0,0,1,.43,2.82v11.35h-5V771.69q0-3.41-2.95-3.4a4.35,4.35,0,0,0-1.14.15,3,3,0,0,0-1,.48,2.27,2.27,0,0,0-1,1.92v11.52h-5Z" fill="#fe055f"/><path d="M71.48,782.77c-3,0-5.18-.81-6.7-2.45a9.38,9.38,0,0,1-2.28-6.66,11.94,11.94,0,0,1,.59-3.86,8.42,8.42,0,0,1,1.7-2.92A7.22,7.22,0,0,1,67.48,765a9.51,9.51,0,0,1,3.55-.63,9.39,9.39,0,0,1,3.54.63,7.23,7.23,0,0,1,2.65,1.79,7.79,7.79,0,0,1,1.68,2.8,10.74,10.74,0,0,1,.6,3.69v1.5h-12v.3a3.69,3.69,0,0,0,1,2.74,4.25,4.25,0,0,0,3.1,1,5.61,5.61,0,0,0,2.68-.6,6.31,6.31,0,0,0,1.94-1.58l2.72,3a8.4,8.4,0,0,1-2.86,2.17A10.38,10.38,0,0,1,71.48,782.77ZM71.07,768a3.43,3.43,0,0,0-2.6,1,3.71,3.71,0,0,0-1,2.7V772h7.07v-.27a3.78,3.78,0,0,0-.94-2.72A3.33,3.33,0,0,0,71.07,768Z" fill="#fe055f"/><path d="M101,784.13a4.42,4.42,0,0,1-2.34,4.12q-2.36,1.32-7.38,1.32a24.78,24.78,0,0,1-4.15-.29,8.28,8.28,0,0,1-2.6-.83,3.22,3.22,0,0,1-1.36-1.29,3.5,3.5,0,0,1-.39-1.63,2.84,2.84,0,0,1,.88-2.27,6,6,0,0,1,2.48-1.17v-.2a4.45,4.45,0,0,1-1.78-1,2.36,2.36,0,0,1-.66-1.79,2.16,2.16,0,0,1,.86-1.9,6.53,6.53,0,0,1,2.3-1v-.21A5.58,5.58,0,0,1,84.45,774a6,6,0,0,1-.87-3.29,6.46,6.46,0,0,1,.54-2.71,5.29,5.29,0,0,1,1.55-2,7.1,7.1,0,0,1,2.4-1.19,11.19,11.19,0,0,1,3.13-.41,12.11,12.11,0,0,1,3.09.38v-1a2.28,2.28,0,0,1,.71-1.7,2.78,2.78,0,0,1,2-.68h3.09v3.67H95.85v.31a5.56,5.56,0,0,1,2.23,2.06,6,6,0,0,1,.8,3.18,6.25,6.25,0,0,1-.54,2.68,5.44,5.44,0,0,1-1.57,2,7.29,7.29,0,0,1-2.43,1.21,11.38,11.38,0,0,1-3.14.4,12,12,0,0,1-1.5-.08,9.36,9.36,0,0,1-1.36-.26,2.28,2.28,0,0,0-.63.51,1.21,1.21,0,0,0-.25.79.93.93,0,0,0,.2.64,1.24,1.24,0,0,0,.56.36,3.32,3.32,0,0,0,.83.15c.32,0,.65,0,1,0h4a11.92,11.92,0,0,1,3.2.37,6.1,6.1,0,0,1,2.17,1,4,4,0,0,1,1.23,1.6A5.33,5.33,0,0,1,101,784.13Zm-4.76.37a1.25,1.25,0,0,0-.54-1.07,3.88,3.88,0,0,0-2.08-.39h-6a1.79,1.79,0,0,0-.68,1.43,1.61,1.61,0,0,0,.69,1.34,4,4,0,0,0,2.37.53H93a5.13,5.13,0,0,0,2.52-.47A1.52,1.52,0,0,0,96.26,784.5ZM91.2,773.73a2.89,2.89,0,0,0,2.22-.75,2.66,2.66,0,0,0,.7-1.9v-.82a2.64,2.64,0,0,0-.7-1.9,2.89,2.89,0,0,0-2.22-.75,2.81,2.81,0,0,0-2.18.75,2.71,2.71,0,0,0-.68,1.9v.82A2.73,2.73,0,0,0,89,773,2.81,2.81,0,0,0,91.2,773.73Z" fill="#fe055f"/><path d="M103.91,778.42h5.37V761.15h-5.37V757.2h10.41v21.22h5.37v3.94H103.91Z" fill="#fe055f"/><path d="M132.2,782.77a10.13,10.13,0,0,1-3.67-.63,7.43,7.43,0,0,1-2.77-1.82,7.86,7.86,0,0,1-1.75-2.89,12.2,12.2,0,0,1,0-7.68,8,8,0,0,1,1.75-2.89,7.56,7.56,0,0,1,2.77-1.82,11,11,0,0,1,7.34,0,7.56,7.56,0,0,1,2.77,1.82,8,8,0,0,1,1.75,2.89,12.2,12.2,0,0,1,0,7.68,7.86,7.86,0,0,1-1.75,2.89,7.43,7.43,0,0,1-2.77,1.82A10.13,10.13,0,0,1,132.2,782.77Zm0-3.74a3.39,3.39,0,0,0,2.65-1,4.28,4.28,0,0,0,1-3V772.2a4.28,4.28,0,0,0-1-3,3.84,3.84,0,0,0-5.3,0,4.28,4.28,0,0,0-1,3V775a4.28,4.28,0,0,0,1,3A3.39,3.39,0,0,0,132.2,779Z" fill="#fe055f"/><path d="M142.64,764.82h4.18L148.08,779h.34l2.07-14.21h4.42L157,779h.34l1.29-14.21h4l-2.07,17.54h-6l-1.73-12.1h-.34l-1.73,12.1h-6Z" fill="#fe055f"/><path d="M164.81,764.82h5v3.23h.24a6.62,6.62,0,0,1,1.87-2.61,5,5,0,0,1,3.33-1A6.35,6.35,0,0,1,178,765a5.39,5.39,0,0,1,2.07,1.66,8.36,8.36,0,0,1,1.36,2.86,17.52,17.52,0,0,1,0,8.23,8.4,8.4,0,0,1-1.36,2.85,5.42,5.42,0,0,1-2.07,1.67,6.5,6.5,0,0,1-2.67.54,5.07,5.07,0,0,1-3.33-1,6.45,6.45,0,0,1-1.87-2.62h-.24v10h-5Zm8.29,14a3.35,3.35,0,0,0,2.62-1,4.16,4.16,0,0,0,.92-2.86v-2.7a4.12,4.12,0,0,0-.92-2.85,3.32,3.32,0,0,0-2.62-1,4,4,0,0,0-2.29.64,2.23,2.23,0,0,0-1,2v5.14a2.26,2.26,0,0,0,1,2A4.1,4.1,0,0,0,173.1,778.83Z" fill="#fe055f"/><path d="M185.72,778.42h4v-9.66h-4v-3.94h9.07v5H195a10.47,10.47,0,0,1,.66-1.85,6.37,6.37,0,0,1,1.09-1.6,4.79,4.79,0,0,1,1.62-1.1,5.67,5.67,0,0,1,2.24-.41h1.67v4.62h-3.74a3.52,3.52,0,0,0-2.82,1.1,4,4,0,0,0-1,2.7v5.18h5.78v3.94H185.72Z" fill="#fe055f"/><path d="M213.8,782.77a10.13,10.13,0,0,1-3.67-.63,7.43,7.43,0,0,1-2.77-1.82,8,8,0,0,1-1.76-2.89,12.39,12.39,0,0,1,0-7.68,8.11,8.11,0,0,1,1.76-2.89,7.56,7.56,0,0,1,2.77-1.82,11,11,0,0,1,7.34,0,7.56,7.56,0,0,1,2.77,1.82,8.09,8.09,0,0,1,1.75,2.89,12.39,12.39,0,0,1,0,7.68,8,8,0,0,1-1.75,2.89,7.43,7.43,0,0,1-2.77,1.82A10.13,10.13,0,0,1,213.8,782.77Zm0-3.74a3.39,3.39,0,0,0,2.65-1,4.28,4.28,0,0,0,1-3V772.2a4.28,4.28,0,0,0-1-3,3.84,3.84,0,0,0-5.3,0,4.28,4.28,0,0,0-1,3V775a4.28,4.28,0,0,0,1,3A3.39,3.39,0,0,0,213.8,779Z" fill="#fe055f"/><path d="M227.13,785.22h6.73V768.76h-6.8v-3.94h11.83V784.1a5.14,5.14,0,0,1-1.33,3.64,5.21,5.21,0,0,1-4,1.42h-6.42Zm9.25-22.64a3.22,3.22,0,0,1-2.37-.7,2.37,2.37,0,0,1-.66-1.68v-1a2.34,2.34,0,0,1,.66-1.7,4.42,4.42,0,0,1,4.71,0,2.31,2.31,0,0,1,.68,1.7v1a2.35,2.35,0,0,1-.68,1.68A3.21,3.21,0,0,1,236.38,762.58Z" fill="#fe055f"/><path d="M255.07,782.77c-2.94,0-5.17-.81-6.69-2.45a9.38,9.38,0,0,1-2.28-6.66,11.94,11.94,0,0,1,.59-3.86,8.42,8.42,0,0,1,1.7-2.92,7.22,7.22,0,0,1,2.69-1.84,9.51,9.51,0,0,1,3.55-.63,9.39,9.39,0,0,1,3.54.63,7.23,7.23,0,0,1,2.65,1.79,7.79,7.79,0,0,1,1.68,2.8,10.74,10.74,0,0,1,.6,3.69v1.5h-12v.3a3.69,3.69,0,0,0,1.05,2.74,4.24,4.24,0,0,0,3.1,1,5.61,5.61,0,0,0,2.68-.6,6.43,6.43,0,0,0,1.94-1.58l2.72,3a8.4,8.4,0,0,1-2.86,2.17A10.39,10.39,0,0,1,255.07,782.77Zm-.4-14.75a3.43,3.43,0,0,0-2.6,1,3.71,3.71,0,0,0-1,2.7V772h7.07v-.27a3.78,3.78,0,0,0-.94-2.72A3.35,3.35,0,0,0,254.67,768Z" fill="#fe055f"/><path d="M275.71,782.77a10.37,10.37,0,0,1-3.72-.63,7.43,7.43,0,0,1-2.79-1.82,8,8,0,0,1-1.75-2.89,12.39,12.39,0,0,1,0-7.68,8.09,8.09,0,0,1,1.75-2.89A7.55,7.55,0,0,1,272,765a10.28,10.28,0,0,1,3.69-.63,8.24,8.24,0,0,1,4.64,1.17A7.57,7.57,0,0,1,283,768.7l-3.88,2.1a5.26,5.26,0,0,0-1.24-1.7,3.21,3.21,0,0,0-2.19-.68,3.46,3.46,0,0,0-2.67,1,3.85,3.85,0,0,0-.94,2.73V775a3.89,3.89,0,0,0,.94,2.74,3.58,3.58,0,0,0,2.74,1,3.53,3.53,0,0,0,2.29-.68,5.47,5.47,0,0,0,1.41-1.77l3.81,2.18a7.63,7.63,0,0,1-2.77,3.11A8.7,8.7,0,0,1,275.71,782.77Z" fill="#fe055f"/><path d="M296.76,782.36a5.28,5.28,0,0,1-4.05-1.42,5.13,5.13,0,0,1-1.32-3.63v-8.55h-4.76v-3.94h3.09a2.35,2.35,0,0,0,1.6-.44,2.19,2.19,0,0,0,.47-1.63v-4.12h4.63v6.19h6.83v3.94h-6.83v9.66h6.83v3.94Z" fill="#fe055f"/><path d="M313.66,787.06V756.52h4.28v30.54Z" fill="#fe055f"/><path d="M332.22,787.06V756.52h11v3.37h-7v23.8h7v3.37Z" fill="#fe055f"/><path d="M350.38,775.77H346.7V772h4.36l.51-3.06H348v-3.74h4.25l1.15-6.6h4l-4.18,23.73h-4ZM360,758.63h4l-1.16,6.6h3.67V769h-4.35l-.51,3.06h3.57v3.74H361l-1.16,6.59h-4Z" fill="#fe055f"/><path d="M377,782.77c-3.18,0-5.52-1.07-7-3.23s-2.26-5.17-2.26-9,.75-6.89,2.26-9,3.84-3.23,7-3.23,5.51,1.08,7,3.23,2.26,5.17,2.26,9-.75,6.89-2.26,9S380.17,782.77,377,782.77Zm0-4a3.33,3.33,0,0,0,3.18-1.6,9.13,9.13,0,0,0,.9-4.45v-4.42a9.17,9.17,0,0,0-.9-4.46,4,4,0,0,0-6.36,0,9.17,9.17,0,0,0-.9,4.46v4.42a9.13,9.13,0,0,0,.9,4.45A3.33,3.33,0,0,0,377,778.76Zm0-6.26a2.29,2.29,0,0,1-1.65-.47,1.59,1.59,0,0,1-.46-1.16v-.75a1.58,1.58,0,0,1,.46-1.15,3.08,3.08,0,0,1,3.3,0,1.63,1.63,0,0,1,.46,1.15v.75a1.63,1.63,0,0,1-.46,1.16A2.31,2.31,0,0,1,377,772.5Z" fill="#fe055f"/><path d="M390.39,782.36v-4.11h6.4V762.34h-.31l-4.83,6.32-3.26-2.55,5.68-7.48h7.82v19.62h5v4.11Z" fill="#fe055f"/><path d="M417.8,771.25a3.76,3.76,0,0,1-2.74-.84,2.73,2.73,0,0,1-.83-2v-1.19a2.74,2.74,0,0,1,.83-2,4.94,4.94,0,0,1,5.48,0,2.74,2.74,0,0,1,.83,2v1.19a2.73,2.73,0,0,1-.83,2A3.76,3.76,0,0,1,417.8,771.25Zm0,11.52a3.8,3.8,0,0,1-2.74-.83,2.74,2.74,0,0,1-.83-2v-1.19a2.74,2.74,0,0,1,.83-2,4.94,4.94,0,0,1,5.48,0,2.74,2.74,0,0,1,.83,2V780a2.74,2.74,0,0,1-.83,2A3.8,3.8,0,0,1,417.8,782.77Z" fill="#fe055f"/><path d="M450.4,764.82h5v3.23h.23a6.72,6.72,0,0,1,1.87-2.61,5,5,0,0,1,3.34-1,6.27,6.27,0,0,1,2.66.55,5.35,5.35,0,0,1,2.08,1.66,8.36,8.36,0,0,1,1.36,2.86,17.52,17.52,0,0,1,0,8.23,8.4,8.4,0,0,1-1.36,2.85,5.38,5.38,0,0,1-2.08,1.67,6.42,6.42,0,0,1-2.66.54,5.12,5.12,0,0,1-3.34-1,6.54,6.54,0,0,1-1.87-2.62h-.23v10h-5Zm8.3,14a3.35,3.35,0,0,0,2.62-1,4.16,4.16,0,0,0,.92-2.86v-2.7a4.12,4.12,0,0,0-.92-2.85,3.32,3.32,0,0,0-2.62-1,4.08,4.08,0,0,0-2.3.64,2.25,2.25,0,0,0-1,2v5.14a2.27,2.27,0,0,0,1,2A4.16,4.16,0,0,0,458.7,778.83Z" fill="#fe055f"/><path d="M472,778.42h5.58v-9.66H472v-3.94H482.6v13.6h5.17v3.94H472Zm8.1-15.84a3.24,3.24,0,0,1-2.37-.7,2.37,2.37,0,0,1-.66-1.68v-1a2.34,2.34,0,0,1,.66-1.7,4.45,4.45,0,0,1,4.73,0,2.34,2.34,0,0,1,.66,1.7v1a2.37,2.37,0,0,1-.66,1.68A3.21,3.21,0,0,1,480.09,762.58Z" fill="#fe055f"/><path d="M491.41,782.36V764.82h5V768h.2a8.14,8.14,0,0,1,.75-1.4,5.25,5.25,0,0,1,1.07-1.14,5,5,0,0,1,1.46-.78,5.86,5.86,0,0,1,1.89-.29,6,6,0,0,1,2.31.43,4.51,4.51,0,0,1,1.8,1.27,6.28,6.28,0,0,1,1.18,2.08,8.63,8.63,0,0,1,.42,2.82v11.35h-5V771.69q0-3.41-3-3.4a4.46,4.46,0,0,0-1.14.15,3,3,0,0,0-1,.48,2.41,2.41,0,0,0-.7.79,2.38,2.38,0,0,0-.25,1.13v11.52Z" fill="#fe055f"/><path d="M511.81,757.2h5v14.28h.24l2.34-2.75,3.67-3.91h5.79l-6.81,6.93,7.52,10.61h-6l-5.1-7.75-1.66,1.67v6.08h-5Z" fill="#fe055f"/><path d="M544.17,756.52v30.54h-11v-3.37h7v-23.8h-7v-3.37Z" fill="#fe055f"/></svg>