<svg xmlns="http://www.w3.org/2000/svg" xmlns:xlink="http://www.w3.org/1999/xlink" viewBox="0 0 1125.5 1547.5"><defs><linearGradient id="a" x1="562.63" y1="228.31" x2="562.63" y2="-469.59" gradientTransform="translate(0.37 1296.04)" gradientUnits="userSpaceOnUse"><stop offset="0.13" stop-color="#fe055f"/><stop offset="0.29" stop-color="#d0044e"/><stop offset="0.66" stop-color="#5c0222"/><stop offset="0.95"/></linearGradient><linearGradient id="b" x1="-273.77" y1="806.36" x2="-273.77" y2="108.47" gradientTransform="translate(836.27 -55.52)" xlink:href="#a"/></defs><rect y="415" width="1125" height="746" fill="#fe055f"/><rect x="0.5" y="773.5" width="1125" height="774" transform="translate(1126 2321) rotate(180)" fill="url(#a)"/><rect width="1125" height="774" fill="url(#b)"/><rect y="587" width="1125" height="362" fill="#fff"/><path d="M513.47,773.8c0-17.24,11-28.69,28.25-28.69,16.81,0,27.68,10.83,27.68,28.55v4.63H533.17v.87c0,5.37,3.48,9.28,9.42,9.28,4.1,0,7.39-1.78,8.55-4.93H569.4c-1.88,11.59-11.81,19-27.24,19C524.34,802.49,513.47,791.81,513.47,773.8ZM551,767.28c-.11-4.78-3.88-8.11-8.84-8.11s-8.88,3.29-9,8.11Z" fill="#fe055f"/><path d="M577.51,745.84h20v55.64h-20Zm.14-14.93c0-5,4.42-9.12,9.86-9.12s9.85,4.09,9.85,9.12-4.42,9.13-9.85,9.13S577.65,736,577.65,730.91Z" fill="#fe055f"/><path d="M627.64,801.48h-20V745.84h19v10.58h.58c2.42-7,8.91-11.31,17.09-11.31,11.81,0,19.46,8.77,19.42,20.87v35.5h-20v-31.3c0-5.51-2.93-8.84-8-8.84s-8.08,3.33-8.12,8.84Z" fill="#fe055f"/><path d="M706.75,760.33h-9.56v23.25c0,2.32,1.16,3.48,3.76,3.48a21.5,21.5,0,0,0,3.92-.58l2.89,14.06a41.38,41.38,0,0,1-9.7,1.74c-13.81.76-21-5.15-20.87-16.81V760.33h-7.1V745.84h7.1V732.51h20v13.33h9.56Z" fill="#fe055f"/><path d="M712.25,786.12c0-12.21,9-16.84,20.43-17.68,9.35-.69,12.9-1.7,12.9-4.92v-.15c0-2.9-2.46-4.49-5.94-4.49-3.81,0-6.34,1.63-6.81,5.07h-18.4c.69-10.14,8.87-18.84,25.5-18.84,15.9,0,25.65,8,25.65,18.26v38.11h-18.7v-7.83h-.43c-3.37,6.23-8.84,8.7-16.08,8.7C719.72,802.35,712.25,797.2,712.25,786.12Zm33.47-4.35v-4.63a36.37,36.37,0,0,1-8,2c-4.63.73-6.66,2.94-6.66,5.8,0,3.12,2.39,4.78,5.8,4.78C741.41,789.74,745.72,786.84,745.72,781.77Z" fill="#fe055f"/><path d="M811.21,745.84h20v55.64h-19V790.9h-.58c-2.43,7.1-8.8,11.3-17.1,11.3-11.7,0-19.38-8.69-19.42-20.86v-35.5h20v31.3c0,5.5,2.93,8.83,8,8.83s8.15-3.33,8.11-8.83Z" fill="#fe055f"/><path d="M839.32,773.8c0-17.09,10.72-28.69,28.83-28.69,16.38,0,26.7,9.42,26.81,23.91H876.41c-.54-5.83-3.55-9-8-9-5.25,0-8.69,4.49-8.69,13.62s3.44,13.62,8.69,13.62c4.39,0,7.54-3.15,8-9H895c-.22,14.75-10.32,24.2-26.81,24.2C850,802.49,839.32,790.9,839.32,773.8Z" fill="#fe055f"/><path d="M923.21,801.48h-20V727.29h19.27v29.13h.58c2.5-7.1,8.58-11.31,16.81-11.31,11.77,0,19.45,8.7,19.41,20.87v35.5h-20v-31.3c0-5.51-2.86-8.84-8-8.84-4.89,0-8.08,3.33-8.12,8.84Z" fill="#fe055f"/><path d="M967.11,773.8c0-17.24,11-28.69,28.26-28.69,16.8,0,27.67,10.83,27.67,28.55v4.63H986.82v.87c0,5.37,3.47,9.28,9.41,9.28,4.1,0,7.39-1.78,8.55-4.93H1023c-1.88,11.59-11.81,19-27.24,19C978,802.49,967.11,791.81,967.11,773.8Zm37.53-6.52c-.11-4.78-3.88-8.11-8.84-8.11s-8.88,3.29-9,8.11Z" fill="#fe055f"/><path d="M1051.15,801.48h-20V745.84h19v10.58h.58c2.43-7,8.91-11.31,17.1-11.31,11.81,0,19.45,8.77,19.42,20.87v35.5h-20v-31.3c0-5.51-2.93-8.84-8-8.84s-8.08,3.33-8.11,8.84Z" fill="#fe055f"/><line y1="774" x2="484" y2="774" fill="#fe055f" stroke="#fe055f" stroke-miterlimit="10" stroke-width="20"/></svg>