<?xml version="1.0" encoding="utf-8"?>
<!-- Generator: Adobe Illustrator 24.1.0, SVG Export Plug-In . SVG Version: 6.00 Build 0)  -->
<svg version="1.1" xmlns="http://www.w3.org/2000/svg" xmlns:xlink="http://www.w3.org/1999/xlink" x="0px" y="0px"
	 viewBox="0 0 1125 2436" style="enable-background:new 0 0 1125 2436;" xml:space="preserve">
<style type="text/css">
	.st0{fill:url(#SVGID_1_);}
	.st1{fill:none;stroke:#F77CC0;stroke-width:19;stroke-linecap:round;stroke-miterlimit:10;}
	.st2{fill:none;stroke:#FFFFFF;stroke-width:10;stroke-linecap:round;stroke-miterlimit:10;}
	.st3{fill:none;}
</style>
<g id="Layer_2">
	<rect width="1125" height="2436"/>
</g>
<g id="Layer_1">
	
		<radialGradient id="SVGID_1_" cx="774.6848" cy="1254.4592" r="1329.8088" fx="233.4441" fy="1164.5217" gradientUnits="userSpaceOnUse">
		<stop  offset="0.1579" style="stop-color:#FF69B4"/>
		<stop  offset="0.2165" style="stop-color:#F866AF"/>
		<stop  offset="0.2988" style="stop-color:#E65FA2"/>
		<stop  offset="0.3951" style="stop-color:#C8528D"/>
		<stop  offset="0.5021" style="stop-color:#9E4170"/>
		<stop  offset="0.6178" style="stop-color:#692B4A"/>
		<stop  offset="0.739" style="stop-color:#28111C"/>
		<stop  offset="0.8082" style="stop-color:#000000"/>
	</radialGradient>
	<rect class="st0" width="1125" height="2436"/>
	<line class="st1" x1="898" y1="921" x2="898" y2="1288"/>
	<line class="st1" x1="935" y1="921" x2="935" y2="1288"/>
	<line class="st1" x1="977" y1="921" x2="977" y2="1288"/>
	<line class="st1" x1="1018" y1="921" x2="1018" y2="1288"/>
	<line class="st2" x1="898" y1="921" x2="898" y2="1288"/>
	<line class="st2" x1="935" y1="921" x2="935" y2="1288"/>
	<line class="st2" x1="977" y1="921" x2="977" y2="1288"/>
	<line class="st2" x1="1018" y1="921" x2="1018" y2="1288"/>
	<g>
		<path class="st3" d="M367.2,2002.2c0.7,0,1.9-0.5,2-1c0.8-3.5-1.9-5-4.2-6.7c-0.9-0.7-2.1-0.9-3.2-1.4c0.1,1.2,0.1,2.3,0.2,3.5
			C362.2,1999.9,363.7,2002,367.2,2002.2z"/>
		<path class="st3" d="M325.3,1826.8c-9.8-2.4-17.5-8.8-26.5-12.7c-2.4-1.1-4.5-2.4-7-0.2c-3,2.7-2,5.5,0.1,7.9
			c8.9,9.9,7.5,21.3,4.4,32.6c-2,7.3-2,14,2.7,21.8c2.9-7.5,5-14.2,10.5-19.5c6.4-6.1,11.3-13.8,16.6-20.9
			C328.6,1832.7,331.3,1828.3,325.3,1826.8z"/>
		<path class="st3" d="M340.3,2052.5c5-3.2,2.8-9.4,5.2-13.7c0.3-0.6-0.2-1.6-0.6-4.3c-5.4,5.7-8.6,10.4-7.6,16.8
			C337.4,2051.8,339.8,2052.8,340.3,2052.5z"/>
		<path d="M1052.1,2418.4c0.2-4.1-1.3-8.7,2.6-12c-1.9-15.5-4.1-31-5.7-46.6c-0.8-7.8-1.4-15.5,8.8-19.4c6.1-2.3,5.2-12.5,10-15.6
			c13.4-8.7,13.4-22.3,12.8-34.6c-2.5-46.9,7.7-93.3,5.8-140.1c0-0.4,0-0.8,0-1.1c-0.1-0.2-0.2-0.3-0.3-0.5
			c-3.4-6.3-2.8-13.7-2.7-20.5c0.1-8.9-0.6-17.9-0.7-26.8c-0.1-10.3-0.3-20.7-1.5-30.9c0-0.3,0-0.6,0-0.9c-0.8-1.2-1.2-3-1.5-5.5
			c-2.1-21.6-5.4-43-7.4-64.6c-1-11,4.7-20.2,12.3-27.8c19.2-19.2,29.9-43.2,39.8-67.8c2.6-6.4-0.2-12.6-3.5-18.3
			c-10-17-17.8-34.9-21.8-54.3c-0.6-3.2-1.7-5.8-4.6-7.1c-12.6-5.9-18.5-18.2-23.5-29.2c-11-24.5-31.7-33.7-55-39.6
			c-13.7-3.5-28-1.8-42.1-2.4c-8.1-0.3-14.8-2.5-19.3-10c-3.4-5.5-8.1-10.1-15.1-10.8c-14-1.5-15.2-13.2-17.9-23.2
			c-1.1-4.2,0.3-8.7,7.1-6c6.2,2.5,9.3-1.6,11.9-6.6c6.4-12.4,7.2-26.1,9.5-39.5c0.5-2.8,0.7-7.3-2.6-7.8c-19.4-3-9.3-17.1-6.2-23.1
			c16.1-30.9,7.1-61.7-24.7-82.4c-10.8,0.5-10.9-9.9-15.7-15.5c-2.2,0.5-4.5,1.1-6.7,1.6c-4.2,4.1-8.6,3.7-13,0.3
			c-11.3,3.7-23.1,4.4-34.8,5.8c-0.2,0.4-0.6,0.7-1.2,0.8c-6.7,7.7-14.4,12.6-25.2,9.4c-3.5,11.2-14.7,12.6-22.8,18
			c-0.8,9.1,1.6,19-6.5,26.2c-0.5,1.3-1,2.6-1.5,3.9c9.8,10.5,10.8,22.8,7.6,36.1c0.5,3.9,0.9,7.8,1.4,11.7
			c3.6,3.3,4.7,7.3,0.6,10.4c-2.4,1.7-4.1-1.3-5.1-3.7c-7.3-3.4-9.2,1.5-10.3,6.9c-3,14.2-1.2,27.9,4.8,41.1c1.1,2.3,2.3,5.5,5.1,5
			c13.4-2.6,10.5,7.4,12.6,14.7c3.8,13.8,3.3,26.6-4.5,38.8c-0.9,1.4-1.6,3.4-1.3,4.9c3.3,17.5-9.3,21.4-21.6,27.6
			c-31.9,15.9-66.2,28.7-87.4,60.2c-15.5,23.1-29.8,46.3-30,75.8c-0.2,25.1,3,50.2,0.1,75.3c-1.6,13.9-4.6,27.6-6.9,41.5
			c-1.8,18.6-3.6,37.3-5.4,55.9c-0.2,3-0.4,5.9-0.6,8.9c0,0.4,0.1,0.9,0,1.3c0,1.5,0,3.1-0.1,4.6l0.1,0.1l-0.1,0
			c-0.7,23.5-4.4,47.2-1,70.5c0.7,4.6-0.9,8.5-3.4,11.3c1.7,33.3,8.1,66,14,98.8c1.3,7.2,3.9,14,7.7,20.2
			c11.6,18.6,16.8,20.6,37.9,14.3c3.8-1.1,7.4-2,11.3-1.3c8.6,1.5,15.8,0.1,21.9-7c4.2-4.9,7.8-4.8,8.8,2.9
			c5,39.1,15.7,77,24.3,115.3h281.7C1051.7,2430.1,1051.8,2424.2,1052.1,2418.4z"/>
		<path d="M321,2422.4c-0.7-19.9-3.1-39.7-4.9-59.6c-0.5-5.2-0.3-10.3,1.7-15.1c2.4-5.8,1.5-11.5-2.4-15.6
			c-8.9-9.5-4.6-14.6,5.4-16.4c13.3-2.4,16.7-13.8,20.4-22.8c12.5-30.7,10.1-62.5,2-93.9c-3.1-12.1-3.2-24.3-4.1-36.5
			c-1.4-12.4,1.6-15,12.8-10c11.2,5.1,22,5.3,32.8-0.6c0.5-4.2,2.4-5.9,4.8-6.7c1.2-11.1,7.4-19.5,10.2-30.3
			c1.4-5.1,1.8-10.1,4.9-14.6c0.4-0.5,0.8-1,1.2-1.5c-0.2-1,0.4-2.3,2.6-4.2c0.1-0.1,0.2-0.2,0.3-0.3c0.7-1.8,1.7-3.3,3.1-4.6
			c0.9-2.6,1-5.4,1.7-8.4c3-12.8,5-22.8-10.3-30.3c-5.4-2.7-0.4-14,1.8-21.2c-0.2-1.2-0.5-2.3-0.7-3.5c-3-5.1-2.7-10.4-0.8-15.7
			c0-2.4-0.1-4.9-0.1-7.3c-3.9-8-4.6-16.4-3.8-25.1c-0.6-2.6-1.1-5.1-1.7-7.7h0c1.7-10.8,0.8-21.9,3.8-32.6
			c1.8-6.6,0.1-12.2-8.6-13.7c-8.8-1.5-12.6,3.5-12.6,10.1c-0.1,11.9-5.2,22.1-7.8,33.2c0.3,0.3,0.5,0.5,0.8,0.8
			c-0.3-0.3-0.5-0.5-0.8-0.8c-1.8,2.8-3.6,5.6-5.3,8.4c-1.1,5.9-5.9,10.7-5.7,17.1c-2.7,1.2-5.2,4-6.9-1.8
			c-1.6-5.4-1.5-10.4-0.8-15.7c-0.1-11.6-8.7-19.8-12.5-30c-2.2-6-1.1-8.3,3-11.3c1.3-2.7,2.9-5.1,6.4-5.4l0.5-0.5
			c0.5-4.8,2.8-8.8,5.5-12.7c12.9-19.1,16.6-39.1,12.7-62.5c-2.6-15.7-9.3-27.3-18.4-38.8c-1.1-0.8-2.2-1.5-3.3-2.3
			c-1.8,0.1-3.6-0.3-3.7-2.2c0-0.5,2.6-1.2,4-1.7c7.8-6.6,18.5-9.6,23.4-19.8c2-4.2,5.4-2.1,8.8-1.5c11.3,2,15.9-2.4,13.1-13.1
			c-4.5-17.3-0.2-29.5,14.5-41.5c9.9-8,9.8-24.1,12.1-37.1c1-5.3-0.3-11.1,2.2-16.3l-1.5-35.3c-10.2-19.5-20.4-39-38.1-53.2
			c-8.3-0.1-13-5.1-16-12.1c-1.6-0.8-3.2-1.6-4.8-2.4c-18.5-5-36.6,1.3-54.9,1.7c-7.5,0.2-15.1-0.6-12.3-12.1
			c1.1-4.5-1.7-8.4-6.1-10.1c-5-1.8-7.9,1.5-10.5,5.1c-7.1,10.1-14.3,20.1-21.4,30.2c-4.3,6.1-4.9,12.5-1.6,19.3
			c0.9-0.1,1.8-0.1,2.7-0.2c4.2-2.8,8.8-3,5.8,3.2c-2.4,5-5,12.2-13,12.2l-7.4,8.7c-2.7,15.8-8.2,31.2-5.1,47.8
			c0.8,4.1-1.8,8.1-6.6,9.5c-1.4,2.2-2.8,4.3-4.1,6.5c0.4,5.5-1.8,8.1-7.5,6.6l-0.9,0.7c1.9,5-0.7,8.6-4.4,10.9
			c-6.3,4-10.8,7.8-6.9,16.4c1.9,4.1-2.7,4.4-5.5,4.8c-5.9,0.9-11.8,1.9-17.7,2.1c-21.4,0.5-37.6,10.9-51.9,25.7
			c-5.6,5.8-7.4,11.8-2.5,18.2c4.5,5.9,3.3,10-1.8,14.2c-29.8,23.8-39.9,56.9-46,92.7c-3.5,20.8-7,42-19,60.3
			c-5.7,8.7-4.6,19.1-5.3,28.6c-3.2,39.1-4.6,78.3-8.6,117.4c-0.1,1-0.2,1.9-0.4,2.8c-0.2,20.6-0.1,42.1-2.7,62.4
			c-0.7,5.3-2.2,11.3-4.6,16.3c0.7,2.2,0.3,4.7-2.3,7.6c-0.3,5-0.6,10-0.8,15c1.5,4.7,1.8,9.2-1.9,13.2c-0.3,3.2-0.6,6.5-1,9.7
			c1.9,6.4,2.2,12.7-1.9,18.5c-0.2,4.1-0.3,8.2-0.5,12.3c0.6,11.8,1.1,23.7,1.8,35.5c0.4,7.7,2.9,13.6,11,16.8
			c18.8,7.4,25.1,18.3,24.3,39.7c0.8,2,2.3,4,2.1,5.9c-1.7,21.9,10.1,38.8,20.7,56.2c3.1,5.1,5.8,10.5,6.6,16.5
			c0.6,4,1.4,7.8,2.5,11.5h219.8C321.5,2431.5,321.2,2427,321,2422.4z M365,1994.5c2.3,1.6,5,3.2,4.2,6.7c-0.1,0.5-1.3,1-2,1
			c-3.5-0.2-5-2.3-5.2-5.6c-0.1-1.2-0.1-2.3-0.2-3.5C362.8,1993.6,364,1993.9,365,1994.5z M344.9,2034.4c0.4,2.8,0.9,3.8,0.6,4.3
			c-2.4,4.4-0.2,10.5-5.2,13.7c-0.6,0.4-2.9-0.7-3-1.3C336.4,2044.8,339.6,2040.1,344.9,2034.4z M299.1,1876.3
			c-4.7-7.8-4.7-14.5-2.7-21.8c3.1-11.4,4.5-22.7-4.4-32.6c-2.1-2.4-3.1-5.2-0.1-7.9c2.4-2.2,4.5-0.9,7,0.2
			c9,3.9,16.7,10.2,26.5,12.7c6,1.5,3.3,5.8,0.9,9c-5.4,7.1-10.3,14.8-16.6,20.9C304.1,1862.1,302.1,1868.7,299.1,1876.3z"/>
	</g>
</g>
</svg>
